<?xml version="1.0" encoding="UTF-8" standalone="no"?>
<!DOCTYPE svg PUBLIC "-//W3C//DTD SVG 1.1//EN"
 "http://www.w3.org/Graphics/SVG/1.1/DTD/svg11.dtd">
<!-- Generated by graphviz version 2.50.0 (20211204.2007)
 -->
<!-- Title: G4519 Pages: 1 -->
<svg width="660pt" height="895pt"
 viewBox="0.00 0.00 659.50 895.00" xmlns="http://www.w3.org/2000/svg" xmlns:xlink="http://www.w3.org/1999/xlink">
<g id="graph0" class="graph" transform="scale(1 1) rotate(0) translate(4 891)">
<title>G4519</title>
<polygon fill="white" stroke="transparent" points="-4,4 -4,-891 655.5,-891 655.5,4 -4,4"/>
<!-- start -->
<g id="node1" class="node">
<title>start</title>
<text text-anchor="middle" x="190.5" y="-875.8" font-family="Times New Roman,serif" font-size="14.00">Start</text>
</g>
<!-- 0 -->
<g id="node2" class="node">
<title>0</title>
<path fill="none" stroke="black" d="M244,-835C244,-835 137,-835 137,-835 131,-835 125,-829 125,-823 125,-823 125,-734 125,-734 125,-728 131,-722 137,-722 137,-722 244,-722 244,-722 250,-722 256,-728 256,-734 256,-734 256,-823 256,-823 256,-829 250,-835 244,-835"/>
<text text-anchor="middle" x="190.5" y="-819.8" font-family="Times New Roman,serif" font-size="14.00">0: exp&#39; &#45;&gt; ● exp</text>
<text text-anchor="middle" x="190.5" y="-804.8" font-family="Times New Roman,serif" font-size="14.00">exp &#45;&gt; ● exp + term</text>
<text text-anchor="middle" x="190.5" y="-789.8" font-family="Times New Roman,serif" font-size="14.00">exp &#45;&gt; ● term</text>
<text text-anchor="middle" x="190.5" y="-774.8" font-family="Times New Roman,serif" font-size="14.00">term &#45;&gt; ● term * fac</text>
<text text-anchor="middle" x="190.5" y="-759.8" font-family="Times New Roman,serif" font-size="14.00">term &#45;&gt; ● fac</text>
<text text-anchor="middle" x="190.5" y="-744.8" font-family="Times New Roman,serif" font-size="14.00">fac &#45;&gt; ● ID</text>
<text text-anchor="middle" x="190.5" y="-729.8" font-family="Times New Roman,serif" font-size="14.00">fac &#45;&gt; ● ( exp )</text>
</g>
<!-- start&#45;&gt;0 -->
<g id="edge1" class="edge">
<title>start&#45;&gt;0</title>
<path fill="none" stroke="black" d="M190.5,-871.7C190.5,-865.24 190.5,-854.82 190.5,-843.26"/>
<polygon fill="black" stroke="black" points="190.5,-835.12 194.1,-843.12 190.5,-839.12 190.5,-843.12 190.5,-843.12 190.5,-843.12 190.5,-839.12 186.9,-843.12 190.5,-835.12 190.5,-835.12"/>
</g>
<!-- 1 -->
<g id="node3" class="node">
<title>1</title>
<path fill="none" stroke="black" d="M412,-667C412,-667 305,-667 305,-667 299,-667 293,-661 293,-655 293,-655 293,-641 293,-641 293,-635 299,-629 305,-629 305,-629 412,-629 412,-629 418,-629 424,-635 424,-641 424,-641 424,-655 424,-655 424,-661 418,-667 412,-667"/>
<path fill="none" stroke="black" d="M416,-671C416,-671 301,-671 301,-671 295,-671 289,-665 289,-659 289,-659 289,-637 289,-637 289,-631 295,-625 301,-625 301,-625 416,-625 416,-625 422,-625 428,-631 428,-637 428,-637 428,-659 428,-659 428,-665 422,-671 416,-671"/>
<text text-anchor="middle" x="358.5" y="-651.8" font-family="Times New Roman,serif" font-size="14.00">1: exp&#39; &#45;&gt; exp ●</text>
<text text-anchor="middle" x="358.5" y="-636.8" font-family="Times New Roman,serif" font-size="14.00">exp &#45;&gt; exp ● + term</text>
</g>
<!-- 0&#45;&gt;1 -->
<g id="edge2" class="edge">
<title>0&#45;&gt;1</title>
<path fill="none" stroke="black" d="M256.42,-727.08C279.21,-709.65 303.87,-690.78 323.24,-675.97"/>
<polygon fill="black" stroke="black" points="329.6,-671.11 325.43,-678.83 326.42,-673.54 323.24,-675.97 323.24,-675.97 323.24,-675.97 326.42,-673.54 321.06,-673.11 329.6,-671.11 329.6,-671.11"/>
<text text-anchor="middle" x="314" y="-692.8" font-family="Times New Roman,serif" font-size="14.00">exp</text>
</g>
<!-- 2 -->
<g id="node4" class="node">
<title>2</title>
<path fill="none" stroke="black" d="M123,-241C123,-241 16,-241 16,-241 10,-241 4,-235 4,-229 4,-229 4,-215 4,-215 4,-209 10,-203 16,-203 16,-203 123,-203 123,-203 129,-203 135,-209 135,-215 135,-215 135,-229 135,-229 135,-235 129,-241 123,-241"/>
<path fill="none" stroke="black" d="M127,-245C127,-245 12,-245 12,-245 6,-245 0,-239 0,-233 0,-233 0,-211 0,-211 0,-205 6,-199 12,-199 12,-199 127,-199 127,-199 133,-199 139,-205 139,-211 139,-211 139,-233 139,-233 139,-239 133,-245 127,-245"/>
<text text-anchor="middle" x="69.5" y="-225.8" font-family="Times New Roman,serif" font-size="14.00">2: exp &#45;&gt; term ●</text>
<text text-anchor="middle" x="69.5" y="-210.8" font-family="Times New Roman,serif" font-size="14.00">term &#45;&gt; term ● * fac</text>
</g>
<!-- 0&#45;&gt;2 -->
<g id="edge3" class="edge">
<title>0&#45;&gt;2</title>
<path fill="none" stroke="black" d="M124.7,-735.81C98.52,-713.77 74.5,-684.01 74.5,-649 74.5,-649 74.5,-649 74.5,-382.5 74.5,-337.49 72.49,-285.36 71.01,-253.28"/>
<polygon fill="black" stroke="black" points="70.63,-245.18 74.61,-253.01 70.82,-249.18 71.01,-253.17 71.01,-253.17 71.01,-253.17 70.82,-249.18 67.41,-253.34 70.63,-245.18 70.63,-245.18"/>
<text text-anchor="middle" x="87" y="-528.8" font-family="Times New Roman,serif" font-size="14.00">term</text>
</g>
<!-- 3 -->
<g id="node5" class="node">
<title>3</title>
<path fill="none" stroke="black" d="M254,-240C254,-240 173,-240 173,-240 167,-240 161,-234 161,-228 161,-228 161,-216 161,-216 161,-210 167,-204 173,-204 173,-204 254,-204 254,-204 260,-204 266,-210 266,-216 266,-216 266,-228 266,-228 266,-234 260,-240 254,-240"/>
<path fill="none" stroke="black" d="M258,-244C258,-244 169,-244 169,-244 163,-244 157,-238 157,-232 157,-232 157,-212 157,-212 157,-206 163,-200 169,-200 169,-200 258,-200 258,-200 264,-200 270,-206 270,-212 270,-212 270,-232 270,-232 270,-238 264,-244 258,-244"/>
<text text-anchor="middle" x="213.5" y="-218.3" font-family="Times New Roman,serif" font-size="14.00">3: term &#45;&gt; fac ●</text>
</g>
<!-- 0&#45;&gt;3 -->
<g id="edge4" class="edge">
<title>0&#45;&gt;3</title>
<path fill="none" stroke="black" d="M161.24,-721.77C152.16,-699.72 144.5,-673.76 144.5,-649 144.5,-649 144.5,-649 144.5,-382.5 144.5,-333.34 172.45,-282.14 192.77,-251.42"/>
<polygon fill="black" stroke="black" points="197.5,-244.44 196,-253.08 195.26,-247.75 193.02,-251.06 193.02,-251.06 193.02,-251.06 195.26,-247.75 190.03,-249.05 197.5,-244.44 197.5,-244.44"/>
<text text-anchor="middle" x="153.5" y="-528.8" font-family="Times New Roman,serif" font-size="14.00">fac</text>
</g>
<!-- 4 -->
<g id="node6" class="node">
<title>4</title>
<path fill="none" stroke="black" d="M523,-40C523,-40 452,-40 452,-40 446,-40 440,-34 440,-28 440,-28 440,-16 440,-16 440,-10 446,-4 452,-4 452,-4 523,-4 523,-4 529,-4 535,-10 535,-16 535,-16 535,-28 535,-28 535,-34 529,-40 523,-40"/>
<path fill="none" stroke="black" d="M527,-44C527,-44 448,-44 448,-44 442,-44 436,-38 436,-32 436,-32 436,-12 436,-12 436,-6 442,0 448,0 448,0 527,0 527,0 533,0 539,-6 539,-12 539,-12 539,-32 539,-32 539,-38 533,-44 527,-44"/>
<text text-anchor="middle" x="487.5" y="-18.3" font-family="Times New Roman,serif" font-size="14.00">4: fac &#45;&gt; ID ●</text>
</g>
<!-- 0&#45;&gt;4 -->
<g id="edge5" class="edge">
<title>0&#45;&gt;4</title>
<path fill="none" stroke="black" d="M256.31,-772.29C380.37,-760.66 636.5,-727.16 636.5,-649 636.5,-649 636.5,-649 636.5,-120.5 636.5,-75.54 588.4,-50.19 546.86,-36.69"/>
<polygon fill="black" stroke="black" points="539.19,-34.3 547.9,-33.24 543.01,-35.49 546.83,-36.68 546.83,-36.68 546.83,-36.68 543.01,-35.49 545.76,-40.12 539.19,-34.3 539.19,-34.3"/>
<text text-anchor="middle" x="644" y="-379.8" font-family="Times New Roman,serif" font-size="14.00">ID</text>
</g>
<!-- 5 -->
<g id="node7" class="node">
<title>5</title>
<path fill="none" stroke="black" d="M366.5,-440C366.5,-440 246.5,-440 246.5,-440 240.5,-440 234.5,-434 234.5,-428 234.5,-428 234.5,-339 234.5,-339 234.5,-333 240.5,-327 246.5,-327 246.5,-327 366.5,-327 366.5,-327 372.5,-327 378.5,-333 378.5,-339 378.5,-339 378.5,-428 378.5,-428 378.5,-434 372.5,-440 366.5,-440"/>
<text text-anchor="middle" x="306.5" y="-424.8" font-family="Times New Roman,serif" font-size="14.00">5: exp &#45;&gt; ● exp + term</text>
<text text-anchor="middle" x="306.5" y="-409.8" font-family="Times New Roman,serif" font-size="14.00">exp &#45;&gt; ● term</text>
<text text-anchor="middle" x="306.5" y="-394.8" font-family="Times New Roman,serif" font-size="14.00">term &#45;&gt; ● term * fac</text>
<text text-anchor="middle" x="306.5" y="-379.8" font-family="Times New Roman,serif" font-size="14.00">term &#45;&gt; ● fac</text>
<text text-anchor="middle" x="306.5" y="-364.8" font-family="Times New Roman,serif" font-size="14.00">fac &#45;&gt; ● ID</text>
<text text-anchor="middle" x="306.5" y="-349.8" font-family="Times New Roman,serif" font-size="14.00">fac &#45;&gt; ● ( exp )</text>
<text text-anchor="middle" x="306.5" y="-334.8" font-family="Times New Roman,serif" font-size="14.00">fac &#45;&gt; ( ● exp )</text>
</g>
<!-- 0&#45;&gt;5 -->
<g id="edge6" class="edge">
<title>0&#45;&gt;5</title>
<path fill="none" stroke="black" d="M207,-721.61C228.3,-649.43 265.29,-524.11 287.67,-448.28"/>
<polygon fill="black" stroke="black" points="290.06,-440.2 291.25,-448.89 288.93,-444.03 287.8,-447.87 287.8,-447.87 287.8,-447.87 288.93,-444.03 284.34,-446.85 290.06,-440.2 290.06,-440.2"/>
<text text-anchor="middle" x="247" y="-595.8" font-family="Times New Roman,serif" font-size="14.00">(</text>
</g>
<!-- 7 -->
<g id="node8" class="node">
<title>7</title>
<path fill="none" stroke="black" d="M453.5,-574C453.5,-574 333.5,-574 333.5,-574 327.5,-574 321.5,-568 321.5,-562 321.5,-562 321.5,-503 321.5,-503 321.5,-497 327.5,-491 333.5,-491 333.5,-491 453.5,-491 453.5,-491 459.5,-491 465.5,-497 465.5,-503 465.5,-503 465.5,-562 465.5,-562 465.5,-568 459.5,-574 453.5,-574"/>
<text text-anchor="middle" x="393.5" y="-558.8" font-family="Times New Roman,serif" font-size="14.00">7: exp &#45;&gt; exp + ● term</text>
<text text-anchor="middle" x="393.5" y="-543.8" font-family="Times New Roman,serif" font-size="14.00">term &#45;&gt; ● term * fac</text>
<text text-anchor="middle" x="393.5" y="-528.8" font-family="Times New Roman,serif" font-size="14.00">term &#45;&gt; ● fac</text>
<text text-anchor="middle" x="393.5" y="-513.8" font-family="Times New Roman,serif" font-size="14.00">fac &#45;&gt; ● ID</text>
<text text-anchor="middle" x="393.5" y="-498.8" font-family="Times New Roman,serif" font-size="14.00">fac &#45;&gt; ● ( exp )</text>
</g>
<!-- 1&#45;&gt;7 -->
<g id="edge7" class="edge">
<title>1&#45;&gt;7</title>
<path fill="none" stroke="black" d="M365.33,-624.85C369.09,-612.65 373.92,-597.01 378.51,-582.13"/>
<polygon fill="black" stroke="black" points="380.88,-574.43 381.96,-583.14 379.7,-578.26 378.52,-582.08 378.52,-582.08 378.52,-582.08 379.7,-578.26 375.08,-581.02 380.88,-574.43 380.88,-574.43"/>
<text text-anchor="middle" x="379" y="-595.8" font-family="Times New Roman,serif" font-size="14.00">+</text>
</g>
<!-- 10 -->
<g id="node9" class="node">
<title>10</title>
<path fill="none" stroke="black" d="M299,-148C299,-148 172,-148 172,-148 166,-148 160,-142 160,-136 160,-136 160,-107 160,-107 160,-101 166,-95 172,-95 172,-95 299,-95 299,-95 305,-95 311,-101 311,-107 311,-107 311,-136 311,-136 311,-142 305,-148 299,-148"/>
<text text-anchor="middle" x="235.5" y="-132.8" font-family="Times New Roman,serif" font-size="14.00">10: term &#45;&gt; term * ● fac</text>
<text text-anchor="middle" x="235.5" y="-117.8" font-family="Times New Roman,serif" font-size="14.00">fac &#45;&gt; ● ID</text>
<text text-anchor="middle" x="235.5" y="-102.8" font-family="Times New Roman,serif" font-size="14.00">fac &#45;&gt; ● ( exp )</text>
</g>
<!-- 2&#45;&gt;10 -->
<g id="edge8" class="edge">
<title>2&#45;&gt;10</title>
<path fill="none" stroke="black" d="M106.75,-198.89C130,-185.1 160.2,-167.18 185.51,-152.16"/>
<polygon fill="black" stroke="black" points="192.51,-148.01 187.46,-155.19 189.07,-150.05 185.63,-152.09 185.63,-152.09 185.63,-152.09 189.07,-150.05 183.79,-149 192.51,-148.01 192.51,-148.01"/>
<text text-anchor="middle" x="161" y="-169.8" font-family="Times New Roman,serif" font-size="14.00">*</text>
</g>
<!-- 5&#45;&gt;2 -->
<g id="edge10" class="edge">
<title>5&#45;&gt;2</title>
<path fill="none" stroke="black" d="M234.43,-334C193.36,-306.36 143.46,-272.77 109.37,-249.83"/>
<polygon fill="black" stroke="black" points="102.35,-245.11 110.99,-246.59 105.67,-247.34 108.98,-249.57 108.98,-249.57 108.98,-249.57 105.67,-247.34 106.97,-252.56 102.35,-245.11 102.35,-245.11"/>
<text text-anchor="middle" x="208" y="-282.3" font-family="Times New Roman,serif" font-size="14.00">term</text>
</g>
<!-- 5&#45;&gt;3 -->
<g id="edge11" class="edge">
<title>5&#45;&gt;3</title>
<path fill="none" stroke="black" d="M281.93,-326.96C269.24,-298.69 255.58,-269.03 251.5,-263 248.61,-258.73 245.25,-254.49 241.76,-250.46"/>
<polygon fill="black" stroke="black" points="236.19,-244.31 244.23,-247.82 238.88,-247.27 241.56,-250.24 241.56,-250.24 241.56,-250.24 238.88,-247.27 238.89,-252.65 236.19,-244.31 236.19,-244.31"/>
<text text-anchor="middle" x="281.5" y="-282.3" font-family="Times New Roman,serif" font-size="14.00">fac</text>
</g>
<!-- 5&#45;&gt;4 -->
<g id="edge12" class="edge">
<title>5&#45;&gt;4</title>
<path fill="none" stroke="black" d="M318.29,-326.9C333.03,-266.11 362.47,-167.69 411.5,-95 422.87,-78.14 438.81,-62.27 453.17,-49.74"/>
<polygon fill="black" stroke="black" points="459.62,-44.23 455.88,-52.16 456.58,-46.82 453.54,-49.42 453.54,-49.42 453.54,-49.42 456.58,-46.82 451.2,-46.68 459.62,-44.23 459.62,-44.23"/>
<text text-anchor="middle" x="378" y="-169.8" font-family="Times New Roman,serif" font-size="14.00">ID</text>
</g>
<!-- 5&#45;&gt;5 -->
<g id="edge13" class="edge">
<title>5&#45;&gt;5</title>
<path fill="none" stroke="black" d="M378.53,-397.45C389.25,-395.28 396.5,-390.63 396.5,-383.5 396.5,-378.27 392.59,-374.37 386.26,-371.81"/>
<polygon fill="black" stroke="black" points="378.53,-369.55 387.21,-368.33 382.37,-370.67 386.21,-371.79 386.21,-371.79 386.21,-371.79 382.37,-370.67 385.2,-375.25 378.53,-369.55 378.53,-369.55"/>
<text text-anchor="middle" x="399" y="-379.8" font-family="Times New Roman,serif" font-size="14.00">(</text>
</g>
<!-- 6 -->
<g id="node10" class="node">
<title>6</title>
<path fill="none" stroke="black" d="M542.5,-241C542.5,-241 422.5,-241 422.5,-241 416.5,-241 410.5,-235 410.5,-229 410.5,-229 410.5,-215 410.5,-215 410.5,-209 416.5,-203 422.5,-203 422.5,-203 542.5,-203 542.5,-203 548.5,-203 554.5,-209 554.5,-215 554.5,-215 554.5,-229 554.5,-229 554.5,-235 548.5,-241 542.5,-241"/>
<text text-anchor="middle" x="482.5" y="-225.8" font-family="Times New Roman,serif" font-size="14.00">6: exp &#45;&gt; exp ● + term</text>
<text text-anchor="middle" x="482.5" y="-210.8" font-family="Times New Roman,serif" font-size="14.00">fac &#45;&gt; ( exp ● )</text>
</g>
<!-- 5&#45;&gt;6 -->
<g id="edge9" class="edge">
<title>5&#45;&gt;6</title>
<path fill="none" stroke="black" d="M334.31,-326.94C337.15,-320.92 339.93,-314.85 342.5,-309 351.34,-288.9 344.55,-278.08 360.5,-263 367.55,-256.33 383.92,-249.58 402.45,-243.56"/>
<polygon fill="black" stroke="black" points="410.5,-241.03 403.95,-246.86 406.68,-242.23 402.87,-243.43 402.87,-243.43 402.87,-243.43 406.68,-242.23 401.79,-239.99 410.5,-241.03 410.5,-241.03"/>
<text text-anchor="middle" x="371" y="-282.3" font-family="Times New Roman,serif" font-size="14.00">exp</text>
</g>
<!-- 7&#45;&gt;3 -->
<g id="edge17" class="edge">
<title>7&#45;&gt;3</title>
<path fill="none" stroke="black" d="M321.23,-515.77C280.32,-502.77 232.47,-479.77 207.5,-440 170.9,-381.71 189.58,-296.14 203.29,-251.89"/>
<polygon fill="black" stroke="black" points="205.77,-244.12 206.76,-252.84 204.55,-247.93 203.33,-251.74 203.33,-251.74 203.33,-251.74 204.55,-247.93 199.91,-250.64 205.77,-244.12 205.77,-244.12"/>
<text text-anchor="middle" x="216.5" y="-379.8" font-family="Times New Roman,serif" font-size="14.00">fac</text>
</g>
<!-- 7&#45;&gt;4 -->
<g id="edge18" class="edge">
<title>7&#45;&gt;4</title>
<path fill="none" stroke="black" d="M465.74,-510.12C521.96,-488.5 590.5,-448.94 590.5,-384.5 590.5,-384.5 590.5,-384.5 590.5,-120.5 590.5,-89.08 564.91,-64.76 539.24,-48.27"/>
<polygon fill="black" stroke="black" points="532.38,-44.03 541.08,-45.17 535.78,-46.13 539.19,-48.23 539.19,-48.23 539.19,-48.23 535.78,-46.13 537.3,-51.3 532.38,-44.03 532.38,-44.03"/>
<text text-anchor="middle" x="598" y="-218.3" font-family="Times New Roman,serif" font-size="14.00">ID</text>
</g>
<!-- 7&#45;&gt;5 -->
<g id="edge19" class="edge">
<title>7&#45;&gt;5</title>
<path fill="none" stroke="black" d="M369.5,-490.94C361.5,-477.43 352.4,-462.05 343.64,-447.26"/>
<polygon fill="black" stroke="black" points="339.38,-440.06 346.55,-445.11 341.42,-443.5 343.45,-446.94 343.45,-446.94 343.45,-446.94 341.42,-443.5 340.36,-448.77 339.38,-440.06 339.38,-440.06"/>
<text text-anchor="middle" x="360" y="-461.8" font-family="Times New Roman,serif" font-size="14.00">(</text>
</g>
<!-- 9 -->
<g id="node12" class="node">
<title>9</title>
<path fill="none" stroke="black" d="M526.5,-305C526.5,-305 406.5,-305 406.5,-305 400.5,-305 394.5,-299 394.5,-293 394.5,-293 394.5,-279 394.5,-279 394.5,-273 400.5,-267 406.5,-267 406.5,-267 526.5,-267 526.5,-267 532.5,-267 538.5,-273 538.5,-279 538.5,-279 538.5,-293 538.5,-293 538.5,-299 532.5,-305 526.5,-305"/>
<path fill="none" stroke="black" d="M530.5,-309C530.5,-309 402.5,-309 402.5,-309 396.5,-309 390.5,-303 390.5,-297 390.5,-297 390.5,-275 390.5,-275 390.5,-269 396.5,-263 402.5,-263 402.5,-263 530.5,-263 530.5,-263 536.5,-263 542.5,-269 542.5,-275 542.5,-275 542.5,-297 542.5,-297 542.5,-303 536.5,-309 530.5,-309"/>
<text text-anchor="middle" x="466.5" y="-289.8" font-family="Times New Roman,serif" font-size="14.00">9: exp &#45;&gt; exp + term ●</text>
<text text-anchor="middle" x="466.5" y="-274.8" font-family="Times New Roman,serif" font-size="14.00">term &#45;&gt; term ● * fac</text>
</g>
<!-- 7&#45;&gt;9 -->
<g id="edge16" class="edge">
<title>7&#45;&gt;9</title>
<path fill="none" stroke="black" d="M405.64,-490.85C420.29,-441.76 444.59,-360.37 457.61,-316.76"/>
<polygon fill="black" stroke="black" points="459.91,-309.07 461.07,-317.77 458.76,-312.91 457.62,-316.74 457.62,-316.74 457.62,-316.74 458.76,-312.91 454.17,-315.71 459.91,-309.07 459.91,-309.07"/>
<text text-anchor="middle" x="427" y="-461.8" font-family="Times New Roman,serif" font-size="14.00">term</text>
</g>
<!-- 10&#45;&gt;4 -->
<g id="edge22" class="edge">
<title>10&#45;&gt;4</title>
<path fill="none" stroke="black" d="M262.36,-94.76C275.85,-83.15 293.02,-70.22 310.5,-62 347.4,-44.64 392.31,-34.86 427.66,-29.44"/>
<polygon fill="black" stroke="black" points="435.96,-28.22 428.57,-32.94 432.01,-28.8 428.05,-29.38 428.05,-29.38 428.05,-29.38 432.01,-28.8 427.52,-25.82 435.96,-28.22 435.96,-28.22"/>
<text text-anchor="middle" x="318" y="-65.8" font-family="Times New Roman,serif" font-size="14.00">ID</text>
</g>
<!-- 10&#45;&gt;5 -->
<g id="edge23" class="edge">
<title>10&#45;&gt;5</title>
<path fill="none" stroke="black" d="M252.96,-148.02C262.08,-162.43 272.73,-181.08 279.5,-199 293.94,-237.23 300.7,-282.65 303.84,-318.73"/>
<polygon fill="black" stroke="black" points="304.5,-326.75 300.26,-319.07 304.17,-322.77 303.85,-318.78 303.85,-318.78 303.85,-318.78 304.17,-322.77 307.43,-318.49 304.5,-326.75 304.5,-326.75"/>
<text text-anchor="middle" x="295" y="-218.3" font-family="Times New Roman,serif" font-size="14.00">(</text>
</g>
<!-- 11 -->
<g id="node13" class="node">
<title>11</title>
<path fill="none" stroke="black" d="M298.5,-40C298.5,-40 172.5,-40 172.5,-40 166.5,-40 160.5,-34 160.5,-28 160.5,-28 160.5,-16 160.5,-16 160.5,-10 166.5,-4 172.5,-4 172.5,-4 298.5,-4 298.5,-4 304.5,-4 310.5,-10 310.5,-16 310.5,-16 310.5,-28 310.5,-28 310.5,-34 304.5,-40 298.5,-40"/>
<path fill="none" stroke="black" d="M302.5,-44C302.5,-44 168.5,-44 168.5,-44 162.5,-44 156.5,-38 156.5,-32 156.5,-32 156.5,-12 156.5,-12 156.5,-6 162.5,0 168.5,0 168.5,0 302.5,0 302.5,0 308.5,0 314.5,-6 314.5,-12 314.5,-12 314.5,-32 314.5,-32 314.5,-38 308.5,-44 302.5,-44"/>
<text text-anchor="middle" x="235.5" y="-18.3" font-family="Times New Roman,serif" font-size="14.00">11: term &#45;&gt; term * fac ●</text>
</g>
<!-- 10&#45;&gt;11 -->
<g id="edge21" class="edge">
<title>10&#45;&gt;11</title>
<path fill="none" stroke="black" d="M235.5,-94.88C235.5,-81.8 235.5,-65.82 235.5,-52.26"/>
<polygon fill="black" stroke="black" points="235.5,-44.17 239.1,-52.17 235.5,-48.17 235.5,-52.17 235.5,-52.17 235.5,-52.17 235.5,-48.17 231.9,-52.17 235.5,-44.17 235.5,-44.17"/>
<text text-anchor="middle" x="244.5" y="-65.8" font-family="Times New Roman,serif" font-size="14.00">fac</text>
</g>
<!-- 6&#45;&gt;7 -->
<g id="edge14" class="edge">
<title>6&#45;&gt;7</title>
<path fill="none" stroke="black" d="M522.53,-241.08C530.92,-246.84 538.69,-254.09 543.5,-263 553.22,-280.99 549.03,-289.32 543.5,-309 524.35,-377.19 475.05,-442.85 438.16,-484.95"/>
<polygon fill="black" stroke="black" points="432.81,-490.98 435.42,-482.61 435.46,-487.99 438.11,-484.99 438.11,-484.99 438.11,-484.99 435.46,-487.99 440.81,-487.38 432.81,-490.98 432.81,-490.98"/>
<text text-anchor="middle" x="541" y="-379.8" font-family="Times New Roman,serif" font-size="14.00">+</text>
</g>
<!-- 8 -->
<g id="node11" class="node">
<title>8</title>
<path fill="none" stroke="black" d="M529,-139.5C529,-139.5 436,-139.5 436,-139.5 430,-139.5 424,-133.5 424,-127.5 424,-127.5 424,-115.5 424,-115.5 424,-109.5 430,-103.5 436,-103.5 436,-103.5 529,-103.5 529,-103.5 535,-103.5 541,-109.5 541,-115.5 541,-115.5 541,-127.5 541,-127.5 541,-133.5 535,-139.5 529,-139.5"/>
<path fill="none" stroke="black" d="M533,-143.5C533,-143.5 432,-143.5 432,-143.5 426,-143.5 420,-137.5 420,-131.5 420,-131.5 420,-111.5 420,-111.5 420,-105.5 426,-99.5 432,-99.5 432,-99.5 533,-99.5 533,-99.5 539,-99.5 545,-105.5 545,-111.5 545,-111.5 545,-131.5 545,-131.5 545,-137.5 539,-143.5 533,-143.5"/>
<text text-anchor="middle" x="482.5" y="-117.8" font-family="Times New Roman,serif" font-size="14.00">8: fac &#45;&gt; ( exp ) ●</text>
</g>
<!-- 6&#45;&gt;8 -->
<g id="edge15" class="edge">
<title>6&#45;&gt;8</title>
<path fill="none" stroke="black" d="M482.5,-202.93C482.5,-188.65 482.5,-168.42 482.5,-151.83"/>
<polygon fill="black" stroke="black" points="482.5,-143.53 486.1,-151.53 482.5,-147.53 482.5,-151.53 482.5,-151.53 482.5,-151.53 482.5,-147.53 478.9,-151.53 482.5,-143.53 482.5,-143.53"/>
<text text-anchor="middle" x="485" y="-169.8" font-family="Times New Roman,serif" font-size="14.00">)</text>
</g>
<!-- 9&#45;&gt;10 -->
<g id="edge20" class="edge">
<title>9&#45;&gt;10</title>
<path fill="none" stroke="black" d="M416.6,-262.83C408.55,-257.77 400.81,-251.83 394.5,-245 368.32,-216.65 386.95,-192.06 358.5,-166 347.12,-155.58 333.09,-147.62 318.62,-141.56"/>
<polygon fill="black" stroke="black" points="311.03,-138.56 319.79,-138.15 314.75,-140.03 318.47,-141.5 318.47,-141.5 318.47,-141.5 314.75,-140.03 317.14,-144.84 311.03,-138.56 311.03,-138.56"/>
<text text-anchor="middle" x="398" y="-218.3" font-family="Times New Roman,serif" font-size="14.00">*</text>
</g>
</g>
</svg>
