<?xml version="1.0" encoding="UTF-8" standalone="no"?>
<!DOCTYPE svg PUBLIC "-//W3C//DTD SVG 1.1//EN"
 "http://www.w3.org/Graphics/SVG/1.1/DTD/svg11.dtd">
<!-- Generated by graphviz version 2.50.0 (20211204.2007)
 -->
<!-- Title: G2530 Pages: 1 -->
<svg width="878pt" height="694pt"
 viewBox="0.00 0.00 877.50 694.05" xmlns="http://www.w3.org/2000/svg" xmlns:xlink="http://www.w3.org/1999/xlink">
<g id="graph0" class="graph" transform="scale(1 1) rotate(0) translate(4 690.05)">
<title>G2530</title>
<polygon fill="white" stroke="transparent" points="-4,4 -4,-690.05 873.5,-690.05 873.5,4 -4,4"/>
<!-- start -->
<g id="node1" class="node">
<title>start</title>
<text text-anchor="middle" x="165.5" y="-660.35" font-family="Times New Roman,serif" font-size="14.00">Start</text>
</g>
<!-- 0 -->
<g id="node2" class="node">
<title>0</title>
<path fill="none" stroke="black" d="M412,-682.05C412,-682.05 329,-682.05 329,-682.05 323,-682.05 317,-676.05 317,-670.05 317,-670.05 317,-658.05 317,-658.05 317,-652.05 323,-646.05 329,-646.05 329,-646.05 412,-646.05 412,-646.05 418,-646.05 424,-652.05 424,-658.05 424,-658.05 424,-670.05 424,-670.05 424,-676.05 418,-682.05 412,-682.05"/>
<text text-anchor="middle" x="370.5" y="-660.35" font-family="Times New Roman,serif" font-size="14.00">0: exp&#39; &#45;&gt; ● exp</text>
</g>
<!-- start&#45;&gt;0 -->
<g id="edge1" class="edge">
<title>start&#45;&gt;0</title>
<path fill="none" stroke="black" d="M179.2,-664.05C204.58,-664.05 263.05,-664.05 308.53,-664.05"/>
<polygon fill="black" stroke="black" points="316.57,-664.05 308.57,-667.65 312.57,-664.05 308.57,-664.05 308.57,-664.05 308.57,-664.05 312.57,-664.05 308.57,-660.45 316.57,-664.05 316.57,-664.05"/>
</g>
<!-- 2 -->
<g id="node3" class="node">
<title>2</title>
<path fill="none" stroke="black" d="M225.5,-605.05C225.5,-605.05 105.5,-605.05 105.5,-605.05 99.5,-605.05 93.5,-599.05 93.5,-593.05 93.5,-593.05 93.5,-581.05 93.5,-581.05 93.5,-575.05 99.5,-569.05 105.5,-569.05 105.5,-569.05 225.5,-569.05 225.5,-569.05 231.5,-569.05 237.5,-575.05 237.5,-581.05 237.5,-581.05 237.5,-593.05 237.5,-593.05 237.5,-599.05 231.5,-605.05 225.5,-605.05"/>
<text text-anchor="middle" x="165.5" y="-583.35" font-family="Times New Roman,serif" font-size="14.00">2: exp &#45;&gt; ● exp + term</text>
</g>
<!-- 0&#45;&gt;2 -->
<g id="edge2" class="edge">
<title>0&#45;&gt;2</title>
<path fill="none" stroke="black" d="M321.85,-645.97C291.92,-634.62 253.18,-619.93 221.88,-608.05"/>
<polygon fill="black" stroke="black" points="214.09,-605.1 222.85,-604.57 217.83,-606.52 221.57,-607.94 221.57,-607.94 221.57,-607.94 217.83,-606.52 220.3,-611.3 214.09,-605.1 214.09,-605.1"/>
<text text-anchor="middle" x="268" y="-633.85" font-family="Times New Roman,serif" font-size="14.00">ε</text>
</g>
<!-- 6 -->
<g id="node4" class="node">
<title>6</title>
<path fill="none" stroke="black" d="M207.5,-48.05C207.5,-48.05 123.5,-48.05 123.5,-48.05 117.5,-48.05 111.5,-42.05 111.5,-36.05 111.5,-36.05 111.5,-24.05 111.5,-24.05 111.5,-18.05 117.5,-12.05 123.5,-12.05 123.5,-12.05 207.5,-12.05 207.5,-12.05 213.5,-12.05 219.5,-18.05 219.5,-24.05 219.5,-24.05 219.5,-36.05 219.5,-36.05 219.5,-42.05 213.5,-48.05 207.5,-48.05"/>
<text text-anchor="middle" x="165.5" y="-26.35" font-family="Times New Roman,serif" font-size="14.00">6: exp &#45;&gt; ● term</text>
</g>
<!-- 0&#45;&gt;6 -->
<g id="edge3" class="edge">
<title>0&#45;&gt;6</title>
<path fill="none" stroke="black" d="M330.93,-645.97C318.35,-638.03 305.77,-627.43 298.5,-614.05 273.14,-567.34 302.64,-184.36 280.5,-136.05 264.26,-100.6 230.11,-71.44 203.41,-52.74"/>
<polygon fill="black" stroke="black" points="196.79,-48.21 205.43,-49.76 200.09,-50.47 203.39,-52.73 203.39,-52.73 203.39,-52.73 200.09,-50.47 201.36,-55.7 196.79,-48.21 196.79,-48.21"/>
<text text-anchor="middle" x="268" y="-139.85" font-family="Times New Roman,serif" font-size="14.00">ε</text>
</g>
<!-- 1 -->
<g id="node5" class="node">
<title>1</title>
<path fill="none" stroke="black" d="M616.5,-682.05C616.5,-682.05 533.5,-682.05 533.5,-682.05 527.5,-682.05 521.5,-676.05 521.5,-670.05 521.5,-670.05 521.5,-658.05 521.5,-658.05 521.5,-652.05 527.5,-646.05 533.5,-646.05 533.5,-646.05 616.5,-646.05 616.5,-646.05 622.5,-646.05 628.5,-652.05 628.5,-658.05 628.5,-658.05 628.5,-670.05 628.5,-670.05 628.5,-676.05 622.5,-682.05 616.5,-682.05"/>
<path fill="none" stroke="black" d="M620.5,-686.05C620.5,-686.05 529.5,-686.05 529.5,-686.05 523.5,-686.05 517.5,-680.05 517.5,-674.05 517.5,-674.05 517.5,-654.05 517.5,-654.05 517.5,-648.05 523.5,-642.05 529.5,-642.05 529.5,-642.05 620.5,-642.05 620.5,-642.05 626.5,-642.05 632.5,-648.05 632.5,-654.05 632.5,-654.05 632.5,-674.05 632.5,-674.05 632.5,-680.05 626.5,-686.05 620.5,-686.05"/>
<text text-anchor="middle" x="575" y="-660.35" font-family="Times New Roman,serif" font-size="14.00">1: exp&#39; &#45;&gt; exp ●</text>
</g>
<!-- 0&#45;&gt;1 -->
<g id="edge4" class="edge">
<title>0&#45;&gt;1</title>
<path fill="none" stroke="black" d="M424.18,-664.05C450.2,-664.05 481.84,-664.05 509.32,-664.05"/>
<polygon fill="black" stroke="black" points="517.33,-664.05 509.33,-667.65 513.33,-664.05 509.33,-664.05 509.33,-664.05 509.33,-664.05 513.33,-664.05 509.33,-660.45 517.33,-664.05 517.33,-664.05"/>
<text text-anchor="middle" x="471" y="-667.85" font-family="Times New Roman,serif" font-size="14.00">exp</text>
</g>
<!-- 2&#45;&gt;2 -->
<g id="edge5" class="edge">
<title>2&#45;&gt;2</title>
<path fill="none" stroke="black" d="M148.86,-605.2C146.3,-614.58 151.84,-623.05 165.5,-623.05 174.89,-623.05 180.44,-619.05 182.17,-613.5"/>
<polygon fill="black" stroke="black" points="182.14,-605.2 185.77,-613.19 182.16,-609.2 182.17,-613.2 182.17,-613.2 182.17,-613.2 182.16,-609.2 178.57,-613.21 182.14,-605.2 182.14,-605.2"/>
<text text-anchor="middle" x="165.5" y="-626.85" font-family="Times New Roman,serif" font-size="14.00">ε</text>
</g>
<!-- 2&#45;&gt;6 -->
<g id="edge6" class="edge">
<title>2&#45;&gt;6</title>
<path fill="none" stroke="black" d="M120.14,-569C110.04,-563.06 100.33,-555.49 93.5,-546.05 76.5,-522.54 83.09,-510.55 83.5,-481.55 84.61,-402.97 67.96,-202.37 93.5,-128.05 103.24,-99.7 124.32,-72.66 141.16,-54.19"/>
<polygon fill="black" stroke="black" points="146.69,-48.26 143.86,-56.57 143.96,-51.19 141.23,-54.11 141.23,-54.11 141.23,-54.11 143.96,-51.19 138.6,-51.66 146.69,-48.26 146.69,-48.26"/>
<text text-anchor="middle" x="72" y="-485.35" font-family="Times New Roman,serif" font-size="14.00">ε</text>
</g>
<!-- 3 -->
<g id="node6" class="node">
<title>3</title>
<path fill="none" stroke="black" d="M430.5,-605.05C430.5,-605.05 310.5,-605.05 310.5,-605.05 304.5,-605.05 298.5,-599.05 298.5,-593.05 298.5,-593.05 298.5,-581.05 298.5,-581.05 298.5,-575.05 304.5,-569.05 310.5,-569.05 310.5,-569.05 430.5,-569.05 430.5,-569.05 436.5,-569.05 442.5,-575.05 442.5,-581.05 442.5,-581.05 442.5,-593.05 442.5,-593.05 442.5,-599.05 436.5,-605.05 430.5,-605.05"/>
<text text-anchor="middle" x="370.5" y="-583.35" font-family="Times New Roman,serif" font-size="14.00">3: exp &#45;&gt; exp ● + term</text>
</g>
<!-- 2&#45;&gt;3 -->
<g id="edge7" class="edge">
<title>2&#45;&gt;3</title>
<path fill="none" stroke="black" d="M237.78,-587.05C254.67,-587.05 272.79,-587.05 290.01,-587.05"/>
<polygon fill="black" stroke="black" points="298.39,-587.05 290.39,-590.65 294.39,-587.05 290.39,-587.05 290.39,-587.05 290.39,-587.05 294.39,-587.05 290.39,-583.45 298.39,-587.05 298.39,-587.05"/>
<text text-anchor="middle" x="268" y="-590.85" font-family="Times New Roman,serif" font-size="14.00">exp</text>
</g>
<!-- 8 -->
<g id="node8" class="node">
<title>8</title>
<path fill="none" stroke="black" d="M225.5,-504.05C225.5,-504.05 105.5,-504.05 105.5,-504.05 99.5,-504.05 93.5,-498.05 93.5,-492.05 93.5,-492.05 93.5,-480.05 93.5,-480.05 93.5,-474.05 99.5,-468.05 105.5,-468.05 105.5,-468.05 225.5,-468.05 225.5,-468.05 231.5,-468.05 237.5,-474.05 237.5,-480.05 237.5,-480.05 237.5,-492.05 237.5,-492.05 237.5,-498.05 231.5,-504.05 225.5,-504.05"/>
<text text-anchor="middle" x="165.5" y="-482.35" font-family="Times New Roman,serif" font-size="14.00">8: term &#45;&gt; ● term * fac</text>
</g>
<!-- 6&#45;&gt;8 -->
<g id="edge12" class="edge">
<title>6&#45;&gt;8</title>
<path fill="none" stroke="black" d="M146.74,-48.28C129.32,-66.59 104.46,-96.54 93.5,-128.05 52.81,-245.03 85.72,-282.71 83.5,-406.55 83.38,-413.21 80.59,-415.55 83.5,-421.55 91.87,-438.78 107.33,-452.79 122.59,-463.29"/>
<polygon fill="black" stroke="black" points="129.55,-467.87 120.89,-466.48 126.21,-465.67 122.87,-463.48 122.87,-463.48 122.87,-463.48 126.21,-465.67 124.84,-460.47 129.55,-467.87 129.55,-467.87"/>
<text text-anchor="middle" x="72" y="-410.35" font-family="Times New Roman,serif" font-size="14.00">ε</text>
</g>
<!-- 12 -->
<g id="node9" class="node">
<title>12</title>
<path fill="none" stroke="black" d="M209.5,-282.05C209.5,-282.05 121.5,-282.05 121.5,-282.05 115.5,-282.05 109.5,-276.05 109.5,-270.05 109.5,-270.05 109.5,-258.05 109.5,-258.05 109.5,-252.05 115.5,-246.05 121.5,-246.05 121.5,-246.05 209.5,-246.05 209.5,-246.05 215.5,-246.05 221.5,-252.05 221.5,-258.05 221.5,-258.05 221.5,-270.05 221.5,-270.05 221.5,-276.05 215.5,-282.05 209.5,-282.05"/>
<text text-anchor="middle" x="165.5" y="-260.35" font-family="Times New Roman,serif" font-size="14.00">12: term &#45;&gt; ● fac</text>
</g>
<!-- 6&#45;&gt;12 -->
<g id="edge13" class="edge">
<title>6&#45;&gt;12</title>
<path fill="none" stroke="black" d="M145.74,-48.36C125.63,-68.47 95.73,-102.81 83.5,-139.55 70.5,-178.58 105.27,-217.15 133.49,-240.77"/>
<polygon fill="black" stroke="black" points="139.76,-245.87 131.28,-243.62 136.66,-243.35 133.55,-240.82 133.55,-240.82 133.55,-240.82 136.66,-243.35 135.82,-238.03 139.76,-245.87 139.76,-245.87"/>
<text text-anchor="middle" x="72" y="-143.35" font-family="Times New Roman,serif" font-size="14.00">ε</text>
</g>
<!-- 7 -->
<g id="node11" class="node">
<title>7</title>
<path fill="none" stroke="black" d="M412.5,-48.05C412.5,-48.05 328.5,-48.05 328.5,-48.05 322.5,-48.05 316.5,-42.05 316.5,-36.05 316.5,-36.05 316.5,-24.05 316.5,-24.05 316.5,-18.05 322.5,-12.05 328.5,-12.05 328.5,-12.05 412.5,-12.05 412.5,-12.05 418.5,-12.05 424.5,-18.05 424.5,-24.05 424.5,-24.05 424.5,-36.05 424.5,-36.05 424.5,-42.05 418.5,-48.05 412.5,-48.05"/>
<path fill="none" stroke="black" d="M416.5,-52.05C416.5,-52.05 324.5,-52.05 324.5,-52.05 318.5,-52.05 312.5,-46.05 312.5,-40.05 312.5,-40.05 312.5,-20.05 312.5,-20.05 312.5,-14.05 318.5,-8.05 324.5,-8.05 324.5,-8.05 416.5,-8.05 416.5,-8.05 422.5,-8.05 428.5,-14.05 428.5,-20.05 428.5,-20.05 428.5,-40.05 428.5,-40.05 428.5,-46.05 422.5,-52.05 416.5,-52.05"/>
<text text-anchor="middle" x="370.5" y="-26.35" font-family="Times New Roman,serif" font-size="14.00">7: exp &#45;&gt; term ●</text>
</g>
<!-- 6&#45;&gt;7 -->
<g id="edge14" class="edge">
<title>6&#45;&gt;7</title>
<path fill="none" stroke="black" d="M219.57,-30.05C245.44,-30.05 276.79,-30.05 304.13,-30.05"/>
<polygon fill="black" stroke="black" points="312.47,-30.05 304.47,-33.65 308.47,-30.05 304.47,-30.05 304.47,-30.05 304.47,-30.05 308.47,-30.05 304.47,-26.45 312.47,-30.05 312.47,-30.05"/>
<text text-anchor="middle" x="268" y="-33.85" font-family="Times New Roman,serif" font-size="14.00">term</text>
</g>
<!-- 4 -->
<g id="node7" class="node">
<title>4</title>
<path fill="none" stroke="black" d="M635,-605.05C635,-605.05 515,-605.05 515,-605.05 509,-605.05 503,-599.05 503,-593.05 503,-593.05 503,-581.05 503,-581.05 503,-575.05 509,-569.05 515,-569.05 515,-569.05 635,-569.05 635,-569.05 641,-569.05 647,-575.05 647,-581.05 647,-581.05 647,-593.05 647,-593.05 647,-599.05 641,-605.05 635,-605.05"/>
<text text-anchor="middle" x="575" y="-583.35" font-family="Times New Roman,serif" font-size="14.00">4: exp &#45;&gt; exp + ● term</text>
</g>
<!-- 3&#45;&gt;4 -->
<g id="edge8" class="edge">
<title>3&#45;&gt;4</title>
<path fill="none" stroke="black" d="M442.61,-587.05C459.36,-587.05 477.31,-587.05 494.41,-587.05"/>
<polygon fill="black" stroke="black" points="502.72,-587.05 494.72,-590.65 498.72,-587.05 494.72,-587.05 494.72,-587.05 494.72,-587.05 498.72,-587.05 494.72,-583.45 502.72,-587.05 502.72,-587.05"/>
<text text-anchor="middle" x="471" y="-590.85" font-family="Times New Roman,serif" font-size="14.00">+</text>
</g>
<!-- 4&#45;&gt;8 -->
<g id="edge9" class="edge">
<title>4&#45;&gt;8</title>
<path fill="none" stroke="black" d="M552.91,-568.88C537.11,-554.64 515.54,-533.83 499.5,-513.05 489.76,-500.43 491.3,-494.61 481.5,-482.05 466.62,-462.96 464.92,-453.16 442.5,-444.05 383.21,-419.94 350.03,-406.08 298.5,-444.05 276.77,-460.05 302.23,-486.04 280.5,-502.05 261.07,-516.36 234.6,-513.61 212.06,-506.71"/>
<polygon fill="black" stroke="black" points="204.27,-504.11 213,-503.23 208.07,-505.38 211.86,-506.64 211.86,-506.64 211.86,-506.64 208.07,-505.38 210.72,-510.06 204.27,-504.11 204.27,-504.11"/>
<text text-anchor="middle" x="370.5" y="-447.85" font-family="Times New Roman,serif" font-size="14.00">ε</text>
</g>
<!-- 4&#45;&gt;12 -->
<g id="edge10" class="edge">
<title>4&#45;&gt;12</title>
<path fill="none" stroke="black" d="M547.63,-569.02C530.59,-555.73 509.74,-536.02 499.5,-513.05 483.11,-476.26 510.68,-178.81 481.5,-151.05 474.74,-144.61 468.59,-146.39 460.5,-151.05 446.69,-158.99 455.23,-172.47 442.5,-182.05 389.78,-221.7 345.73,-171.99 298.5,-218.05 277.04,-238.97 304.36,-264.9 280.5,-283.05 260.05,-298.6 231.55,-293.84 208.15,-285.2"/>
<polygon fill="black" stroke="black" points="200.44,-282.15 209.2,-281.74 204.16,-283.62 207.87,-285.09 207.87,-285.09 207.87,-285.09 204.16,-283.62 206.55,-288.44 200.44,-282.15 200.44,-282.15"/>
<text text-anchor="middle" x="370.5" y="-221.85" font-family="Times New Roman,serif" font-size="14.00">ε</text>
</g>
<!-- 5 -->
<g id="node10" class="node">
<title>5</title>
<path fill="none" stroke="black" d="M850.5,-605.05C850.5,-605.05 730.5,-605.05 730.5,-605.05 724.5,-605.05 718.5,-599.05 718.5,-593.05 718.5,-593.05 718.5,-581.05 718.5,-581.05 718.5,-575.05 724.5,-569.05 730.5,-569.05 730.5,-569.05 850.5,-569.05 850.5,-569.05 856.5,-569.05 862.5,-575.05 862.5,-581.05 862.5,-581.05 862.5,-593.05 862.5,-593.05 862.5,-599.05 856.5,-605.05 850.5,-605.05"/>
<path fill="none" stroke="black" d="M854.5,-609.05C854.5,-609.05 726.5,-609.05 726.5,-609.05 720.5,-609.05 714.5,-603.05 714.5,-597.05 714.5,-597.05 714.5,-577.05 714.5,-577.05 714.5,-571.05 720.5,-565.05 726.5,-565.05 726.5,-565.05 854.5,-565.05 854.5,-565.05 860.5,-565.05 866.5,-571.05 866.5,-577.05 866.5,-577.05 866.5,-597.05 866.5,-597.05 866.5,-603.05 860.5,-609.05 854.5,-609.05"/>
<text text-anchor="middle" x="790.5" y="-583.35" font-family="Times New Roman,serif" font-size="14.00">5: exp &#45;&gt; exp + term ●</text>
</g>
<!-- 4&#45;&gt;5 -->
<g id="edge11" class="edge">
<title>4&#45;&gt;5</title>
<path fill="none" stroke="black" d="M647.09,-587.05C666.07,-587.05 686.75,-587.05 706.31,-587.05"/>
<polygon fill="black" stroke="black" points="714.33,-587.05 706.33,-590.65 710.33,-587.05 706.33,-587.05 706.33,-587.05 706.33,-587.05 710.33,-587.05 706.33,-583.45 714.33,-587.05 714.33,-587.05"/>
<text text-anchor="middle" x="681" y="-590.85" font-family="Times New Roman,serif" font-size="14.00">term</text>
</g>
<!-- 8&#45;&gt;8 -->
<g id="edge15" class="edge">
<title>8&#45;&gt;8</title>
<path fill="none" stroke="black" d="M148.86,-504.2C146.3,-513.58 151.84,-522.05 165.5,-522.05 174.89,-522.05 180.44,-518.05 182.17,-512.5"/>
<polygon fill="black" stroke="black" points="182.14,-504.2 185.77,-512.19 182.16,-508.2 182.17,-512.2 182.17,-512.2 182.17,-512.2 182.16,-508.2 178.57,-512.21 182.14,-504.2 182.14,-504.2"/>
<text text-anchor="middle" x="165.5" y="-525.85" font-family="Times New Roman,serif" font-size="14.00">ε</text>
</g>
<!-- 8&#45;&gt;12 -->
<g id="edge16" class="edge">
<title>8&#45;&gt;12</title>
<path fill="none" stroke="black" d="M140.4,-468C110.74,-444.27 67.33,-400.52 83.5,-357.55 93.95,-329.77 116.82,-304.86 135.76,-287.75"/>
<polygon fill="black" stroke="black" points="142.01,-282.26 138.38,-290.25 139.01,-284.9 136,-287.54 136,-287.54 136,-287.54 139.01,-284.9 133.63,-284.84 142.01,-282.26 142.01,-282.26"/>
<text text-anchor="middle" x="72" y="-361.35" font-family="Times New Roman,serif" font-size="14.00">ε</text>
</g>
<!-- 9 -->
<g id="node12" class="node">
<title>9</title>
<path fill="none" stroke="black" d="M430.5,-504.05C430.5,-504.05 310.5,-504.05 310.5,-504.05 304.5,-504.05 298.5,-498.05 298.5,-492.05 298.5,-492.05 298.5,-480.05 298.5,-480.05 298.5,-474.05 304.5,-468.05 310.5,-468.05 310.5,-468.05 430.5,-468.05 430.5,-468.05 436.5,-468.05 442.5,-474.05 442.5,-480.05 442.5,-480.05 442.5,-492.05 442.5,-492.05 442.5,-498.05 436.5,-504.05 430.5,-504.05"/>
<text text-anchor="middle" x="370.5" y="-482.35" font-family="Times New Roman,serif" font-size="14.00">9: term &#45;&gt; term ● * fac</text>
</g>
<!-- 8&#45;&gt;9 -->
<g id="edge17" class="edge">
<title>8&#45;&gt;9</title>
<path fill="none" stroke="black" d="M237.78,-486.05C254.67,-486.05 272.79,-486.05 290.01,-486.05"/>
<polygon fill="black" stroke="black" points="298.39,-486.05 290.39,-489.65 294.39,-486.05 290.39,-486.05 290.39,-486.05 290.39,-486.05 294.39,-486.05 290.39,-482.45 298.39,-486.05 298.39,-486.05"/>
<text text-anchor="middle" x="268" y="-489.85" font-family="Times New Roman,serif" font-size="14.00">term</text>
</g>
<!-- 14 -->
<g id="node14" class="node">
<title>14</title>
<path fill="none" stroke="black" d="M204,-395.05C204,-395.05 127,-395.05 127,-395.05 121,-395.05 115,-389.05 115,-383.05 115,-383.05 115,-371.05 115,-371.05 115,-365.05 121,-359.05 127,-359.05 127,-359.05 204,-359.05 204,-359.05 210,-359.05 216,-365.05 216,-371.05 216,-371.05 216,-383.05 216,-383.05 216,-389.05 210,-395.05 204,-395.05"/>
<text text-anchor="middle" x="165.5" y="-373.35" font-family="Times New Roman,serif" font-size="14.00">14: fac &#45;&gt; ● ID</text>
</g>
<!-- 12&#45;&gt;14 -->
<g id="edge22" class="edge">
<title>12&#45;&gt;14</title>
<path fill="none" stroke="black" d="M165.5,-282.2C165.5,-300.73 165.5,-329.69 165.5,-350.73"/>
<polygon fill="black" stroke="black" points="165.5,-358.93 161.9,-350.93 165.5,-354.93 165.5,-350.93 165.5,-350.93 165.5,-350.93 165.5,-354.93 169.1,-350.93 165.5,-358.93 165.5,-358.93"/>
<text text-anchor="middle" x="155" y="-316.85" font-family="Times New Roman,serif" font-size="14.00">ε</text>
</g>
<!-- 16 -->
<g id="node15" class="node">
<title>16</title>
<path fill="none" stroke="black" d="M215.5,-173.05C215.5,-173.05 115.5,-173.05 115.5,-173.05 109.5,-173.05 103.5,-167.05 103.5,-161.05 103.5,-161.05 103.5,-149.05 103.5,-149.05 103.5,-143.05 109.5,-137.05 115.5,-137.05 115.5,-137.05 215.5,-137.05 215.5,-137.05 221.5,-137.05 227.5,-143.05 227.5,-149.05 227.5,-149.05 227.5,-161.05 227.5,-161.05 227.5,-167.05 221.5,-173.05 215.5,-173.05"/>
<text text-anchor="middle" x="165.5" y="-151.35" font-family="Times New Roman,serif" font-size="14.00">16: fac &#45;&gt; ● ( exp )</text>
</g>
<!-- 12&#45;&gt;16 -->
<g id="edge23" class="edge">
<title>12&#45;&gt;16</title>
<path fill="none" stroke="black" d="M165.5,-245.83C165.5,-228.28 165.5,-201.53 165.5,-181.61"/>
<polygon fill="black" stroke="black" points="165.5,-173.54 169.1,-181.54 165.5,-177.54 165.5,-181.54 165.5,-181.54 165.5,-181.54 165.5,-177.54 161.9,-181.54 165.5,-173.54 165.5,-173.54"/>
<text text-anchor="middle" x="155" y="-205.85" font-family="Times New Roman,serif" font-size="14.00">ε</text>
</g>
<!-- 13 -->
<g id="node17" class="node">
<title>13</title>
<path fill="none" stroke="black" d="M414.5,-282.05C414.5,-282.05 326.5,-282.05 326.5,-282.05 320.5,-282.05 314.5,-276.05 314.5,-270.05 314.5,-270.05 314.5,-258.05 314.5,-258.05 314.5,-252.05 320.5,-246.05 326.5,-246.05 326.5,-246.05 414.5,-246.05 414.5,-246.05 420.5,-246.05 426.5,-252.05 426.5,-258.05 426.5,-258.05 426.5,-270.05 426.5,-270.05 426.5,-276.05 420.5,-282.05 414.5,-282.05"/>
<path fill="none" stroke="black" d="M418.5,-286.05C418.5,-286.05 322.5,-286.05 322.5,-286.05 316.5,-286.05 310.5,-280.05 310.5,-274.05 310.5,-274.05 310.5,-254.05 310.5,-254.05 310.5,-248.05 316.5,-242.05 322.5,-242.05 322.5,-242.05 418.5,-242.05 418.5,-242.05 424.5,-242.05 430.5,-248.05 430.5,-254.05 430.5,-254.05 430.5,-274.05 430.5,-274.05 430.5,-280.05 424.5,-286.05 418.5,-286.05"/>
<text text-anchor="middle" x="370.5" y="-260.35" font-family="Times New Roman,serif" font-size="14.00">13: term &#45;&gt; fac ●</text>
</g>
<!-- 12&#45;&gt;13 -->
<g id="edge24" class="edge">
<title>12&#45;&gt;13</title>
<path fill="none" stroke="black" d="M221.7,-264.05C246.6,-264.05 276.23,-264.05 302.4,-264.05"/>
<polygon fill="black" stroke="black" points="310.4,-264.05 302.4,-267.65 306.4,-264.05 302.4,-264.05 302.4,-264.05 302.4,-264.05 306.4,-264.05 302.4,-260.45 310.4,-264.05 310.4,-264.05"/>
<text text-anchor="middle" x="268" y="-267.85" font-family="Times New Roman,serif" font-size="14.00">fac</text>
</g>
<!-- 10 -->
<g id="node13" class="node">
<title>10</title>
<path fill="none" stroke="black" d="M638.5,-504.05C638.5,-504.05 511.5,-504.05 511.5,-504.05 505.5,-504.05 499.5,-498.05 499.5,-492.05 499.5,-492.05 499.5,-480.05 499.5,-480.05 499.5,-474.05 505.5,-468.05 511.5,-468.05 511.5,-468.05 638.5,-468.05 638.5,-468.05 644.5,-468.05 650.5,-474.05 650.5,-480.05 650.5,-480.05 650.5,-492.05 650.5,-492.05 650.5,-498.05 644.5,-504.05 638.5,-504.05"/>
<text text-anchor="middle" x="575" y="-482.35" font-family="Times New Roman,serif" font-size="14.00">10: term &#45;&gt; term * ● fac</text>
</g>
<!-- 9&#45;&gt;10 -->
<g id="edge18" class="edge">
<title>9&#45;&gt;10</title>
<path fill="none" stroke="black" d="M442.61,-486.05C458.23,-486.05 474.91,-486.05 490.96,-486.05"/>
<polygon fill="black" stroke="black" points="499.28,-486.05 491.28,-489.65 495.28,-486.05 491.28,-486.05 491.28,-486.05 491.28,-486.05 495.28,-486.05 491.28,-482.45 499.28,-486.05 499.28,-486.05"/>
<text text-anchor="middle" x="471" y="-489.85" font-family="Times New Roman,serif" font-size="14.00">*</text>
</g>
<!-- 10&#45;&gt;14 -->
<g id="edge19" class="edge">
<title>10&#45;&gt;14</title>
<path fill="none" stroke="black" d="M570.32,-467.87C556.57,-400.94 507.72,-171.01 481.5,-151.05 428.74,-110.88 486.47,-245.42 442.5,-295.05 398.75,-344.42 345.73,-284.99 298.5,-331.05 277.04,-351.97 304.36,-377.9 280.5,-396.05 260.05,-411.6 231.55,-406.84 208.15,-398.2"/>
<polygon fill="black" stroke="black" points="200.44,-395.15 209.2,-394.74 204.16,-396.62 207.87,-398.09 207.87,-398.09 207.87,-398.09 204.16,-396.62 206.55,-401.44 200.44,-395.15 200.44,-395.15"/>
<text text-anchor="middle" x="370.5" y="-334.85" font-family="Times New Roman,serif" font-size="14.00">ε</text>
</g>
<!-- 10&#45;&gt;16 -->
<g id="edge20" class="edge">
<title>10&#45;&gt;16</title>
<path fill="none" stroke="black" d="M569.85,-467.86C554.45,-400.83 500.49,-169.98 481.5,-142.05 435.2,-73.94 364.46,-63.74 298.5,-113.05 275.86,-129.97 303.14,-157.12 280.5,-174.05 260,-189.37 231.62,-184.7 208.3,-176.16"/>
<polygon fill="black" stroke="black" points="200.61,-173.14 209.37,-172.72 204.33,-174.6 208.06,-176.07 208.06,-176.07 208.06,-176.07 204.33,-174.6 206.74,-179.42 200.61,-173.14 200.61,-173.14"/>
<text text-anchor="middle" x="370.5" y="-116.85" font-family="Times New Roman,serif" font-size="14.00">ε</text>
</g>
<!-- 11 -->
<g id="node16" class="node">
<title>11</title>
<path fill="none" stroke="black" d="M853.5,-504.05C853.5,-504.05 727.5,-504.05 727.5,-504.05 721.5,-504.05 715.5,-498.05 715.5,-492.05 715.5,-492.05 715.5,-480.05 715.5,-480.05 715.5,-474.05 721.5,-468.05 727.5,-468.05 727.5,-468.05 853.5,-468.05 853.5,-468.05 859.5,-468.05 865.5,-474.05 865.5,-480.05 865.5,-480.05 865.5,-492.05 865.5,-492.05 865.5,-498.05 859.5,-504.05 853.5,-504.05"/>
<path fill="none" stroke="black" d="M857.5,-508.05C857.5,-508.05 723.5,-508.05 723.5,-508.05 717.5,-508.05 711.5,-502.05 711.5,-496.05 711.5,-496.05 711.5,-476.05 711.5,-476.05 711.5,-470.05 717.5,-464.05 723.5,-464.05 723.5,-464.05 857.5,-464.05 857.5,-464.05 863.5,-464.05 869.5,-470.05 869.5,-476.05 869.5,-476.05 869.5,-496.05 869.5,-496.05 869.5,-502.05 863.5,-508.05 857.5,-508.05"/>
<text text-anchor="middle" x="790.5" y="-482.35" font-family="Times New Roman,serif" font-size="14.00">11: term &#45;&gt; term * fac ●</text>
</g>
<!-- 10&#45;&gt;11 -->
<g id="edge21" class="edge">
<title>10&#45;&gt;11</title>
<path fill="none" stroke="black" d="M650.67,-486.05C667.52,-486.05 685.53,-486.05 702.82,-486.05"/>
<polygon fill="black" stroke="black" points="711.25,-486.05 703.25,-489.65 707.25,-486.05 703.25,-486.05 703.25,-486.05 703.25,-486.05 707.25,-486.05 703.25,-482.45 711.25,-486.05 711.25,-486.05"/>
<text text-anchor="middle" x="681" y="-489.85" font-family="Times New Roman,serif" font-size="14.00">fac</text>
</g>
<!-- 15 -->
<g id="node18" class="node">
<title>15</title>
<path fill="none" stroke="black" d="M409,-395.05C409,-395.05 332,-395.05 332,-395.05 326,-395.05 320,-389.05 320,-383.05 320,-383.05 320,-371.05 320,-371.05 320,-365.05 326,-359.05 332,-359.05 332,-359.05 409,-359.05 409,-359.05 415,-359.05 421,-365.05 421,-371.05 421,-371.05 421,-383.05 421,-383.05 421,-389.05 415,-395.05 409,-395.05"/>
<path fill="none" stroke="black" d="M413,-399.05C413,-399.05 328,-399.05 328,-399.05 322,-399.05 316,-393.05 316,-387.05 316,-387.05 316,-367.05 316,-367.05 316,-361.05 322,-355.05 328,-355.05 328,-355.05 413,-355.05 413,-355.05 419,-355.05 425,-361.05 425,-367.05 425,-367.05 425,-387.05 425,-387.05 425,-393.05 419,-399.05 413,-399.05"/>
<text text-anchor="middle" x="370.5" y="-373.35" font-family="Times New Roman,serif" font-size="14.00">15: fac &#45;&gt; ID ●</text>
</g>
<!-- 14&#45;&gt;15 -->
<g id="edge25" class="edge">
<title>14&#45;&gt;15</title>
<path fill="none" stroke="black" d="M216.16,-377.05C243.73,-377.05 278.28,-377.05 307.61,-377.05"/>
<polygon fill="black" stroke="black" points="315.73,-377.05 307.73,-380.65 311.73,-377.05 307.73,-377.05 307.73,-377.05 307.73,-377.05 311.73,-377.05 307.73,-373.45 315.73,-377.05 315.73,-377.05"/>
<text text-anchor="middle" x="268" y="-380.85" font-family="Times New Roman,serif" font-size="14.00">ID</text>
</g>
<!-- 17 -->
<g id="node19" class="node">
<title>17</title>
<path fill="none" stroke="black" d="M420.5,-173.05C420.5,-173.05 320.5,-173.05 320.5,-173.05 314.5,-173.05 308.5,-167.05 308.5,-161.05 308.5,-161.05 308.5,-149.05 308.5,-149.05 308.5,-143.05 314.5,-137.05 320.5,-137.05 320.5,-137.05 420.5,-137.05 420.5,-137.05 426.5,-137.05 432.5,-143.05 432.5,-149.05 432.5,-149.05 432.5,-161.05 432.5,-161.05 432.5,-167.05 426.5,-173.05 420.5,-173.05"/>
<text text-anchor="middle" x="370.5" y="-151.35" font-family="Times New Roman,serif" font-size="14.00">17: fac &#45;&gt; ( ● exp )</text>
</g>
<!-- 16&#45;&gt;17 -->
<g id="edge26" class="edge">
<title>16&#45;&gt;17</title>
<path fill="none" stroke="black" d="M227.68,-155.05C250.55,-155.05 276.68,-155.05 300.23,-155.05"/>
<polygon fill="black" stroke="black" points="308.44,-155.05 300.44,-158.65 304.44,-155.05 300.44,-155.05 300.44,-155.05 300.44,-155.05 304.44,-155.05 300.44,-151.45 308.44,-155.05 308.44,-155.05"/>
<text text-anchor="middle" x="268" y="-158.85" font-family="Times New Roman,serif" font-size="14.00">(</text>
</g>
<!-- 17&#45;&gt;2 -->
<g id="edge27" class="edge">
<title>17&#45;&gt;2</title>
<path fill="none" stroke="black" d="M312.67,-173.27C307.17,-177.04 302.25,-181.58 298.5,-187.05 258.42,-245.38 310.19,-440.79 280.5,-505.05 268.07,-531.94 241.76,-551.77 217.54,-565.19"/>
<polygon fill="black" stroke="black" points="210.45,-568.98 215.81,-562.04 213.98,-567.1 217.51,-565.21 217.51,-565.21 217.51,-565.21 213.98,-567.1 219.2,-568.39 210.45,-568.98 210.45,-568.98"/>
<text text-anchor="middle" x="268" y="-540.85" font-family="Times New Roman,serif" font-size="14.00">ε</text>
</g>
<!-- 17&#45;&gt;6 -->
<g id="edge28" class="edge">
<title>17&#45;&gt;6</title>
<path fill="none" stroke="black" d="M331.26,-136.92C319.03,-129.33 306.58,-119.36 298.5,-107.05 274.68,-70.75 313.9,-38.77 280.5,-11.05 260.3,5.72 230.97,0.39 207.12,-8.84"/>
<polygon fill="black" stroke="black" points="199.58,-11.95 205.61,-5.57 203.28,-10.42 206.98,-8.9 206.98,-8.9 206.98,-8.9 203.28,-10.42 208.35,-12.22 199.58,-11.95 199.58,-11.95"/>
<text text-anchor="middle" x="268" y="-14.85" font-family="Times New Roman,serif" font-size="14.00">ε</text>
</g>
<!-- 18 -->
<g id="node20" class="node">
<title>18</title>
<path fill="none" stroke="black" d="M625,-173.05C625,-173.05 525,-173.05 525,-173.05 519,-173.05 513,-167.05 513,-161.05 513,-161.05 513,-149.05 513,-149.05 513,-143.05 519,-137.05 525,-137.05 525,-137.05 625,-137.05 625,-137.05 631,-137.05 637,-143.05 637,-149.05 637,-149.05 637,-161.05 637,-161.05 637,-167.05 631,-173.05 625,-173.05"/>
<text text-anchor="middle" x="575" y="-151.35" font-family="Times New Roman,serif" font-size="14.00">18: fac &#45;&gt; ( exp ● )</text>
</g>
<!-- 17&#45;&gt;18 -->
<g id="edge29" class="edge">
<title>17&#45;&gt;18</title>
<path fill="none" stroke="black" d="M432.53,-155.05C455.24,-155.05 481.17,-155.05 504.58,-155.05"/>
<polygon fill="black" stroke="black" points="512.74,-155.05 504.74,-158.65 508.74,-155.05 504.74,-155.05 504.74,-155.05 504.74,-155.05 508.74,-155.05 504.74,-151.45 512.74,-155.05 512.74,-155.05"/>
<text text-anchor="middle" x="471" y="-158.85" font-family="Times New Roman,serif" font-size="14.00">exp</text>
</g>
<!-- 19 -->
<g id="node21" class="node">
<title>19</title>
<path fill="none" stroke="black" d="M840.5,-173.05C840.5,-173.05 740.5,-173.05 740.5,-173.05 734.5,-173.05 728.5,-167.05 728.5,-161.05 728.5,-161.05 728.5,-149.05 728.5,-149.05 728.5,-143.05 734.5,-137.05 740.5,-137.05 740.5,-137.05 840.5,-137.05 840.5,-137.05 846.5,-137.05 852.5,-143.05 852.5,-149.05 852.5,-149.05 852.5,-161.05 852.5,-161.05 852.5,-167.05 846.5,-173.05 840.5,-173.05"/>
<path fill="none" stroke="black" d="M844.5,-177.05C844.5,-177.05 736.5,-177.05 736.5,-177.05 730.5,-177.05 724.5,-171.05 724.5,-165.05 724.5,-165.05 724.5,-145.05 724.5,-145.05 724.5,-139.05 730.5,-133.05 736.5,-133.05 736.5,-133.05 844.5,-133.05 844.5,-133.05 850.5,-133.05 856.5,-139.05 856.5,-145.05 856.5,-145.05 856.5,-165.05 856.5,-165.05 856.5,-171.05 850.5,-177.05 844.5,-177.05"/>
<text text-anchor="middle" x="790.5" y="-151.35" font-family="Times New Roman,serif" font-size="14.00">19: fac &#45;&gt; ( exp ) ●</text>
</g>
<!-- 18&#45;&gt;19 -->
<g id="edge30" class="edge">
<title>18&#45;&gt;19</title>
<path fill="none" stroke="black" d="M637.18,-155.05C661.75,-155.05 690.29,-155.05 715.98,-155.05"/>
<polygon fill="black" stroke="black" points="724.21,-155.05 716.21,-158.65 720.21,-155.05 716.21,-155.05 716.21,-155.05 716.21,-155.05 720.21,-155.05 716.21,-151.45 724.21,-155.05 724.21,-155.05"/>
<text text-anchor="middle" x="681" y="-158.85" font-family="Times New Roman,serif" font-size="14.00">)</text>
</g>
</g>
</svg>
